ISO-10303-21;
HEADER;
/* Generated by software containing ST-Developer
 * from STEP Tools, Inc. (www.steptools.com) 
 */

FILE_DESCRIPTION(
/* description */ (''),
/* implementation_level */ '2;1');

FILE_NAME(
/* name */ 'Lilygo time tracker 2.step',
/* time_stamp */ '2026-09-15T11:08:42+02:00',
/* author */ (''),
/* organization */ (''),
/* preprocessor_version */ 'ST-DEVELOPER v20.2',
/* originating_system */ 'Autodesk Translation Framework v15.15.0.0',
/* authorisation */ '');

FILE_SCHEMA (('AUTOMOTIVE_DESIGN { 1 0 10303 214 3 1 1 }'));
ENDSEC;

DATA;
#10=MECHANICAL_DESIGN_GEOMETRIC_PRESENTATION_REPRESENTATION('',(#13),#1281);
#11=SHAPE_REPRESENTATION_RELATIONSHIP('SRR','None',#1288,#12);
#12=ADVANCED_BREP_SHAPE_REPRESENTATION('',(#14),#1280);
#13=STYLED_ITEM('',(#1297),#14);
#14=MANIFOLD_SOLID_BREP('Corps1',#761);
#15=CYLINDRICAL_SURFACE('',#799,4.);
#16=CYLINDRICAL_SURFACE('',#801,4.00000000000002);
#17=CYLINDRICAL_SURFACE('',#803,3.99999999999999);
#18=CYLINDRICAL_SURFACE('',#805,3.);
#19=CYLINDRICAL_SURFACE('',#812,3.);
#20=CYLINDRICAL_SURFACE('',#824,4.00000000000002);
#21=CYLINDRICAL_SURFACE('',#825,3.00000000000002);
#22=CYLINDRICAL_SURFACE('',#829,3.00000000000002);
#23=CYLINDRICAL_SURFACE('',#835,1.5);
#24=CYLINDRICAL_SURFACE('',#837,1.5);
#25=CYLINDRICAL_SURFACE('',#839,1.5);
#26=CYLINDRICAL_SURFACE('',#841,1.5);
#27=FACE_BOUND('',#105,.T.);
#28=FACE_BOUND('',#110,.T.);
#29=FACE_BOUND('',#122,.T.);
#30=CIRCLE('',#787,1.5);
#31=CIRCLE('',#788,1.5);
#32=CIRCLE('',#789,1.5);
#33=CIRCLE('',#790,1.5);
#34=CIRCLE('',#795,1.5);
#35=CIRCLE('',#796,1.5);
#36=CIRCLE('',#797,1.5);
#37=CIRCLE('',#798,1.5);
#38=CIRCLE('',#800,4.);
#39=CIRCLE('',#802,4.00000000000002);
#40=CIRCLE('',#804,3.99999999999999);
#41=CIRCLE('',#806,3.);
#42=CIRCLE('',#807,3.);
#43=CIRCLE('',#808,3.);
#44=CIRCLE('',#811,3.00000000000002);
#45=CIRCLE('',#813,3.);
#46=CIRCLE('',#814,3.);
#47=CIRCLE('',#815,3.);
#48=CIRCLE('',#820,4.00000000000002);
#49=CIRCLE('',#821,3.00000000000002);
#50=CIRCLE('',#822,3.00000000000002);
#51=CIRCLE('',#826,3.00000000000002);
#52=CIRCLE('',#827,3.00000000000002);
#53=CIRCLE('',#830,3.00000000000002);
#54=ELLIPSE('',#782,4.061706447543,4.00000000000002);
#55=ELLIPSE('',#783,4.061706447543,4.00000000000002);
#56=ELLIPSE('',#784,4.06170644754298,4.);
#57=ELLIPSE('',#785,4.06170644754297,3.99999999999999);
#58=FACE_OUTER_BOUND('',#97,.T.);
#59=FACE_OUTER_BOUND('',#98,.T.);
#60=FACE_OUTER_BOUND('',#99,.T.);
#61=FACE_OUTER_BOUND('',#100,.T.);
#62=FACE_OUTER_BOUND('',#101,.T.);
#63=FACE_OUTER_BOUND('',#102,.T.);
#64=FACE_OUTER_BOUND('',#103,.T.);
#65=FACE_OUTER_BOUND('',#104,.T.);
#66=FACE_OUTER_BOUND('',#106,.T.);
#67=FACE_OUTER_BOUND('',#107,.T.);
#68=FACE_OUTER_BOUND('',#108,.T.);
#69=FACE_OUTER_BOUND('',#109,.T.);
#70=FACE_OUTER_BOUND('',#111,.T.);
#71=FACE_OUTER_BOUND('',#112,.T.);
#72=FACE_OUTER_BOUND('',#113,.T.);
#73=FACE_OUTER_BOUND('',#114,.T.);
#74=FACE_OUTER_BOUND('',#115,.T.);
#75=FACE_OUTER_BOUND('',#116,.T.);
#76=FACE_OUTER_BOUND('',#117,.T.);
#77=FACE_OUTER_BOUND('',#118,.T.);
#78=FACE_OUTER_BOUND('',#119,.T.);
#79=FACE_OUTER_BOUND('',#120,.T.);
#80=FACE_OUTER_BOUND('',#121,.T.);
#81=FACE_OUTER_BOUND('',#123,.T.);
#82=FACE_OUTER_BOUND('',#124,.T.);
#83=FACE_OUTER_BOUND('',#125,.T.);
#84=FACE_OUTER_BOUND('',#126,.T.);
#85=FACE_OUTER_BOUND('',#127,.T.);
#86=FACE_OUTER_BOUND('',#128,.T.);
#87=FACE_OUTER_BOUND('',#129,.T.);
#88=FACE_OUTER_BOUND('',#130,.T.);
#89=FACE_OUTER_BOUND('',#131,.T.);
#90=FACE_OUTER_BOUND('',#132,.T.);
#91=FACE_OUTER_BOUND('',#133,.T.);
#92=FACE_OUTER_BOUND('',#134,.T.);
#93=FACE_OUTER_BOUND('',#135,.T.);
#94=FACE_OUTER_BOUND('',#136,.T.);
#95=FACE_OUTER_BOUND('',#137,.T.);
#96=FACE_OUTER_BOUND('',#138,.T.);
#97=EDGE_LOOP('',(#479,#480,#481,#482,#483,#484,#485,#486));
#98=EDGE_LOOP('',(#487,#488,#489,#490));
#99=EDGE_LOOP('',(#491,#492,#493,#494,#495,#496,#497,#498));
#100=EDGE_LOOP('',(#499,#500,#501,#502));
#101=EDGE_LOOP('',(#503,#504,#505,#506,#507,#508,#509,#510));
#102=EDGE_LOOP('',(#511,#512,#513,#514));
#103=EDGE_LOOP('',(#515,#516,#517,#518,#519,#520,#521,#522));
#104=EDGE_LOOP('',(#523,#524,#525,#526,#527,#528,#529,#530));
#105=EDGE_LOOP('',(#531,#532,#533,#534,#535,#536,#537,#538));
#106=EDGE_LOOP('',(#539,#540,#541,#542));
#107=EDGE_LOOP('',(#543,#544,#545,#546,#547,#548,#549,#550));
#108=EDGE_LOOP('',(#551,#552,#553,#554));
#109=EDGE_LOOP('',(#555,#556,#557,#558));
#110=EDGE_LOOP('',(#559,#560,#561,#562,#563,#564,#565,#566));
#111=EDGE_LOOP('',(#567,#568,#569,#570));
#112=EDGE_LOOP('',(#571,#572,#573,#574));
#113=EDGE_LOOP('',(#575,#576,#577,#578));
#114=EDGE_LOOP('',(#579,#580,#581,#582,#583,#584));
#115=EDGE_LOOP('',(#585,#586,#587,#588));
#116=EDGE_LOOP('',(#589,#590,#591,#592));
#117=EDGE_LOOP('',(#593,#594,#595,#596,#597,#598));
#118=EDGE_LOOP('',(#599,#600,#601,#602));
#119=EDGE_LOOP('',(#603,#604,#605,#606));
#120=EDGE_LOOP('',(#607,#608,#609,#610));
#121=EDGE_LOOP('',(#611,#612,#613,#614,#615,#616,#617,#618));
#122=EDGE_LOOP('',(#619,#620,#621,#622,#623,#624,#625,#626));
#123=EDGE_LOOP('',(#627,#628,#629,#630));
#124=EDGE_LOOP('',(#631,#632,#633,#634));
#125=EDGE_LOOP('',(#635,#636,#637,#638,#639,#640));
#126=EDGE_LOOP('',(#641,#642,#643,#644));
#127=EDGE_LOOP('',(#645,#646,#647,#648,#649,#650));
#128=EDGE_LOOP('',(#651,#652,#653,#654));
#129=EDGE_LOOP('',(#655,#656,#657,#658));
#130=EDGE_LOOP('',(#659,#660,#661,#662));
#131=EDGE_LOOP('',(#663,#664,#665,#666));
#132=EDGE_LOOP('',(#667,#668,#669,#670));
#133=EDGE_LOOP('',(#671,#672,#673,#674));
#134=EDGE_LOOP('',(#675,#676,#677,#678));
#135=EDGE_LOOP('',(#679,#680,#681,#682));
#136=EDGE_LOOP('',(#683,#684,#685,#686));
#137=EDGE_LOOP('',(#687,#688,#689,#690));
#138=EDGE_LOOP('',(#691,#692,#693,#694));
#139=LINE('',#1062,#219);
#140=LINE('',#1064,#220);
#141=LINE('',#1066,#221);
#142=LINE('',#1068,#222);
#143=LINE('',#1070,#223);
#144=LINE('',#1072,#224);
#145=LINE('',#1074,#225);
#146=LINE('',#1075,#226);
#147=LINE('',#1079,#227);
#148=LINE('',#1081,#228);
#149=LINE('',#1083,#229);
#150=LINE('',#1084,#230);
#151=LINE('',#1087,#231);
#152=LINE('',#1089,#232);
#153=LINE('',#1091,#233);
#154=LINE('',#1093,#234);
#155=LINE('',#1095,#235);
#156=LINE('',#1097,#236);
#157=LINE('',#1098,#237);
#158=LINE('',#1101,#238);
#159=LINE('',#1102,#239);
#160=LINE('',#1105,#240);
#161=LINE('',#1107,#241);
#162=LINE('',#1109,#242);
#163=LINE('',#1111,#243);
#164=LINE('',#1113,#244);
#165=LINE('',#1114,#245);
#166=LINE('',#1117,#246);
#167=LINE('',#1118,#247);
#168=LINE('',#1124,#248);
#169=LINE('',#1129,#249);
#170=LINE('',#1132,#250);
#171=LINE('',#1135,#251);
#172=LINE('',#1137,#252);
#173=LINE('',#1139,#253);
#174=LINE('',#1141,#254);
#175=LINE('',#1143,#255);
#176=LINE('',#1144,#256);
#177=LINE('',#1147,#257);
#178=LINE('',#1151,#258);
#179=LINE('',#1155,#259);
#180=LINE('',#1159,#260);
#181=LINE('',#1163,#261);
#182=LINE('',#1164,#262);
#183=LINE('',#1167,#263);
#184=LINE('',#1169,#264);
#185=LINE('',#1171,#265);
#186=LINE('',#1173,#266);
#187=LINE('',#1175,#267);
#188=LINE('',#1176,#268);
#189=LINE('',#1178,#269);
#190=LINE('',#1181,#270);
#191=LINE('',#1183,#271);
#192=LINE('',#1184,#272);
#193=LINE('',#1187,#273);
#194=LINE('',#1191,#274);
#195=LINE('',#1195,#275);
#196=LINE('',#1199,#276);
#197=LINE('',#1205,#277);
#198=LINE('',#1210,#278);
#199=LINE('',#1215,#279);
#200=LINE('',#1220,#280);
#201=LINE('',#1222,#281);
#202=LINE('',#1223,#282);
#203=LINE('',#1231,#283);
#204=LINE('',#1236,#284);
#205=LINE('',#1237,#285);
#206=LINE('',#1240,#286);
#207=LINE('',#1242,#287);
#208=LINE('',#1243,#288);
#209=LINE('',#1246,#289);
#210=LINE('',#1251,#290);
#211=LINE('',#1263,#291);
#212=LINE('',#1264,#292);
#213=LINE('',#1266,#293);
#214=LINE('',#1268,#294);
#215=LINE('',#1270,#295);
#216=LINE('',#1272,#296);
#217=LINE('',#1274,#297);
#218=LINE('',#1276,#298);
#219=VECTOR('',#846,10.);
#220=VECTOR('',#847,10.);
#221=VECTOR('',#848,10.);
#222=VECTOR('',#849,10.);
#223=VECTOR('',#850,10.);
#224=VECTOR('',#851,10.);
#225=VECTOR('',#852,10.);
#226=VECTOR('',#853,10.);
#227=VECTOR('',#856,10.);
#228=VECTOR('',#857,10.);
#229=VECTOR('',#858,10.);
#230=VECTOR('',#859,10.);
#231=VECTOR('',#862,10.);
#232=VECTOR('',#863,10.);
#233=VECTOR('',#864,10.);
#234=VECTOR('',#865,10.);
#235=VECTOR('',#866,10.);
#236=VECTOR('',#867,10.);
#237=VECTOR('',#868,10.);
#238=VECTOR('',#871,10.);
#239=VECTOR('',#872,10.);
#240=VECTOR('',#875,10.);
#241=VECTOR('',#876,10.);
#242=VECTOR('',#877,10.);
#243=VECTOR('',#878,10.);
#244=VECTOR('',#879,10.);
#245=VECTOR('',#880,10.);
#246=VECTOR('',#883,10.);
#247=VECTOR('',#884,10.);
#248=VECTOR('',#889,10.);
#249=VECTOR('',#894,10.);
#250=VECTOR('',#897,10.);
#251=VECTOR('',#900,10.);
#252=VECTOR('',#901,10.);
#253=VECTOR('',#902,10.);
#254=VECTOR('',#903,10.);
#255=VECTOR('',#904,10.);
#256=VECTOR('',#905,10.);
#257=VECTOR('',#906,10.);
#258=VECTOR('',#909,10.);
#259=VECTOR('',#912,10.);
#260=VECTOR('',#915,10.);
#261=VECTOR('',#920,10.);
#262=VECTOR('',#921,10.);
#263=VECTOR('',#924,10.);
#264=VECTOR('',#925,10.);
#265=VECTOR('',#926,10.);
#266=VECTOR('',#927,10.);
#267=VECTOR('',#928,10.);
#268=VECTOR('',#929,10.);
#269=VECTOR('',#932,10.);
#270=VECTOR('',#935,10.);
#271=VECTOR('',#936,10.);
#272=VECTOR('',#937,10.);
#273=VECTOR('',#938,10.);
#274=VECTOR('',#941,10.);
#275=VECTOR('',#944,10.);
#276=VECTOR('',#947,10.);
#277=VECTOR('',#956,10.);
#278=VECTOR('',#963,10.);
#279=VECTOR('',#968,10.);
#280=VECTOR('',#975,10.);
#281=VECTOR('',#976,10.);
#282=VECTOR('',#977,10.);
#283=VECTOR('',#988,10.);
#284=VECTOR('',#995,10.);
#285=VECTOR('',#996,10.);
#286=VECTOR('',#999,10.);
#287=VECTOR('',#1000,10.);
#288=VECTOR('',#1001,10.);
#289=VECTOR('',#1004,10.);
#290=VECTOR('',#1013,10.);
#291=VECTOR('',#1036,10.);
#292=VECTOR('',#1037,10.);
#293=VECTOR('',#1040,10.);
#294=VECTOR('',#1043,10.);
#295=VECTOR('',#1046,10.);
#296=VECTOR('',#1049,10.);
#297=VECTOR('',#1052,10.);
#298=VECTOR('',#1055,10.);
#299=VERTEX_POINT('',#1060);
#300=VERTEX_POINT('',#1061);
#301=VERTEX_POINT('',#1063);
#302=VERTEX_POINT('',#1065);
#303=VERTEX_POINT('',#1067);
#304=VERTEX_POINT('',#1069);
#305=VERTEX_POINT('',#1071);
#306=VERTEX_POINT('',#1073);
#307=VERTEX_POINT('',#1077);
#308=VERTEX_POINT('',#1078);
#309=VERTEX_POINT('',#1080);
#310=VERTEX_POINT('',#1082);
#311=VERTEX_POINT('',#1086);
#312=VERTEX_POINT('',#1088);
#313=VERTEX_POINT('',#1090);
#314=VERTEX_POINT('',#1092);
#315=VERTEX_POINT('',#1094);
#316=VERTEX_POINT('',#1096);
#317=VERTEX_POINT('',#1100);
#318=VERTEX_POINT('',#1104);
#319=VERTEX_POINT('',#1106);
#320=VERTEX_POINT('',#1108);
#321=VERTEX_POINT('',#1110);
#322=VERTEX_POINT('',#1112);
#323=VERTEX_POINT('',#1116);
#324=VERTEX_POINT('',#1120);
#325=VERTEX_POINT('',#1121);
#326=VERTEX_POINT('',#1123);
#327=VERTEX_POINT('',#1126);
#328=VERTEX_POINT('',#1128);
#329=VERTEX_POINT('',#1130);
#330=VERTEX_POINT('',#1134);
#331=VERTEX_POINT('',#1136);
#332=VERTEX_POINT('',#1138);
#333=VERTEX_POINT('',#1140);
#334=VERTEX_POINT('',#1142);
#335=VERTEX_POINT('',#1145);
#336=VERTEX_POINT('',#1146);
#337=VERTEX_POINT('',#1148);
#338=VERTEX_POINT('',#1150);
#339=VERTEX_POINT('',#1152);
#340=VERTEX_POINT('',#1154);
#341=VERTEX_POINT('',#1156);
#342=VERTEX_POINT('',#1158);
#343=VERTEX_POINT('',#1162);
#344=VERTEX_POINT('',#1166);
#345=VERTEX_POINT('',#1168);
#346=VERTEX_POINT('',#1170);
#347=VERTEX_POINT('',#1172);
#348=VERTEX_POINT('',#1174);
#349=VERTEX_POINT('',#1180);
#350=VERTEX_POINT('',#1182);
#351=VERTEX_POINT('',#1185);
#352=VERTEX_POINT('',#1186);
#353=VERTEX_POINT('',#1188);
#354=VERTEX_POINT('',#1190);
#355=VERTEX_POINT('',#1192);
#356=VERTEX_POINT('',#1194);
#357=VERTEX_POINT('',#1196);
#358=VERTEX_POINT('',#1198);
#359=VERTEX_POINT('',#1204);
#360=VERTEX_POINT('',#1208);
#361=VERTEX_POINT('',#1212);
#362=VERTEX_POINT('',#1214);
#363=VERTEX_POINT('',#1219);
#364=VERTEX_POINT('',#1221);
#365=VERTEX_POINT('',#1228);
#366=VERTEX_POINT('',#1230);
#367=VERTEX_POINT('',#1235);
#368=VERTEX_POINT('',#1239);
#369=VERTEX_POINT('',#1241);
#370=VERTEX_POINT('',#1245);
#371=EDGE_CURVE('',#299,#300,#139,.T.);
#372=EDGE_CURVE('',#301,#299,#140,.T.);
#373=EDGE_CURVE('',#302,#301,#141,.T.);
#374=EDGE_CURVE('',#303,#302,#142,.T.);
#375=EDGE_CURVE('',#304,#303,#143,.T.);
#376=EDGE_CURVE('',#305,#304,#144,.T.);
#377=EDGE_CURVE('',#306,#305,#145,.T.);
#378=EDGE_CURVE('',#300,#306,#146,.T.);
#379=EDGE_CURVE('',#307,#308,#147,.T.);
#380=EDGE_CURVE('',#309,#307,#148,.T.);
#381=EDGE_CURVE('',#310,#309,#149,.T.);
#382=EDGE_CURVE('',#310,#308,#150,.T.);
#383=EDGE_CURVE('',#303,#311,#151,.T.);
#384=EDGE_CURVE('',#311,#312,#152,.T.);
#385=EDGE_CURVE('',#313,#312,#153,.T.);
#386=EDGE_CURVE('',#314,#313,#154,.T.);
#387=EDGE_CURVE('',#315,#314,#155,.T.);
#388=EDGE_CURVE('',#315,#316,#156,.T.);
#389=EDGE_CURVE('',#316,#304,#157,.T.);
#390=EDGE_CURVE('',#317,#302,#158,.T.);
#391=EDGE_CURVE('',#311,#317,#159,.T.);
#392=EDGE_CURVE('',#301,#318,#160,.T.);
#393=EDGE_CURVE('',#318,#319,#161,.T.);
#394=EDGE_CURVE('',#319,#320,#162,.T.);
#395=EDGE_CURVE('',#321,#320,#163,.T.);
#396=EDGE_CURVE('',#321,#322,#164,.T.);
#397=EDGE_CURVE('',#322,#317,#165,.T.);
#398=EDGE_CURVE('',#323,#299,#166,.T.);
#399=EDGE_CURVE('',#318,#323,#167,.T.);
#400=EDGE_CURVE('',#324,#325,#54,.T.);
#401=EDGE_CURVE('',#326,#324,#168,.T.);
#402=EDGE_CURVE('',#308,#326,#55,.T.);
#403=EDGE_CURVE('',#327,#310,#56,.T.);
#404=EDGE_CURVE('',#328,#327,#169,.T.);
#405=EDGE_CURVE('',#329,#328,#57,.T.);
#406=EDGE_CURVE('',#325,#329,#170,.T.);
#407=EDGE_CURVE('',#300,#330,#171,.T.);
#408=EDGE_CURVE('',#330,#331,#172,.T.);
#409=EDGE_CURVE('',#332,#331,#173,.T.);
#410=EDGE_CURVE('',#333,#332,#174,.T.);
#411=EDGE_CURVE('',#334,#333,#175,.T.);
#412=EDGE_CURVE('',#334,#323,#176,.T.);
#413=EDGE_CURVE('',#335,#336,#177,.T.);
#414=EDGE_CURVE('',#336,#337,#30,.T.);
#415=EDGE_CURVE('',#337,#338,#178,.T.);
#416=EDGE_CURVE('',#338,#339,#31,.T.);
#417=EDGE_CURVE('',#339,#340,#179,.T.);
#418=EDGE_CURVE('',#340,#341,#32,.T.);
#419=EDGE_CURVE('',#341,#342,#180,.T.);
#420=EDGE_CURVE('',#342,#335,#33,.T.);
#421=EDGE_CURVE('',#343,#306,#181,.T.);
#422=EDGE_CURVE('',#330,#343,#182,.T.);
#423=EDGE_CURVE('',#305,#344,#183,.T.);
#424=EDGE_CURVE('',#344,#345,#184,.T.);
#425=EDGE_CURVE('',#345,#346,#185,.T.);
#426=EDGE_CURVE('',#347,#346,#186,.T.);
#427=EDGE_CURVE('',#347,#348,#187,.T.);
#428=EDGE_CURVE('',#348,#343,#188,.T.);
#429=EDGE_CURVE('',#344,#316,#189,.T.);
#430=EDGE_CURVE('',#349,#327,#190,.T.);
#431=EDGE_CURVE('',#350,#349,#191,.T.);
#432=EDGE_CURVE('',#328,#350,#192,.T.);
#433=EDGE_CURVE('',#351,#352,#193,.T.);
#434=EDGE_CURVE('',#352,#353,#34,.T.);
#435=EDGE_CURVE('',#353,#354,#194,.T.);
#436=EDGE_CURVE('',#354,#355,#35,.T.);
#437=EDGE_CURVE('',#355,#356,#195,.T.);
#438=EDGE_CURVE('',#356,#357,#36,.T.);
#439=EDGE_CURVE('',#357,#358,#196,.T.);
#440=EDGE_CURVE('',#358,#351,#37,.T.);
#441=EDGE_CURVE('',#309,#349,#38,.T.);
#442=EDGE_CURVE('',#326,#359,#197,.T.);
#443=EDGE_CURVE('',#359,#307,#39,.T.);
#444=EDGE_CURVE('',#350,#360,#40,.T.);
#445=EDGE_CURVE('',#360,#329,#198,.T.);
#446=EDGE_CURVE('',#361,#347,#41,.T.);
#447=EDGE_CURVE('',#361,#362,#199,.T.);
#448=EDGE_CURVE('',#362,#332,#42,.T.);
#449=EDGE_CURVE('',#348,#331,#43,.T.);
#450=EDGE_CURVE('',#361,#363,#200,.T.);
#451=EDGE_CURVE('',#364,#363,#201,.T.);
#452=EDGE_CURVE('',#362,#364,#202,.T.);
#453=EDGE_CURVE('',#346,#363,#44,.T.);
#454=EDGE_CURVE('',#334,#319,#45,.T.);
#455=EDGE_CURVE('',#333,#365,#46,.T.);
#456=EDGE_CURVE('',#365,#366,#203,.T.);
#457=EDGE_CURVE('',#320,#366,#47,.T.);
#458=EDGE_CURVE('',#367,#360,#204,.T.);
#459=EDGE_CURVE('',#325,#367,#205,.T.);
#460=EDGE_CURVE('',#368,#365,#206,.T.);
#461=EDGE_CURVE('',#369,#368,#207,.T.);
#462=EDGE_CURVE('',#369,#366,#208,.T.);
#463=EDGE_CURVE('',#359,#370,#209,.T.);
#464=EDGE_CURVE('',#367,#370,#48,.T.);
#465=EDGE_CURVE('',#314,#364,#49,.T.);
#466=EDGE_CURVE('',#368,#313,#50,.T.);
#467=EDGE_CURVE('',#370,#324,#210,.T.);
#468=EDGE_CURVE('',#369,#321,#51,.T.);
#469=EDGE_CURVE('',#322,#312,#52,.T.);
#470=EDGE_CURVE('',#315,#345,#53,.T.);
#471=EDGE_CURVE('',#351,#336,#211,.T.);
#472=EDGE_CURVE('',#352,#335,#212,.T.);
#473=EDGE_CURVE('',#358,#337,#213,.T.);
#474=EDGE_CURVE('',#357,#338,#214,.T.);
#475=EDGE_CURVE('',#356,#339,#215,.T.);
#476=EDGE_CURVE('',#355,#340,#216,.T.);
#477=EDGE_CURVE('',#354,#341,#217,.T.);
#478=EDGE_CURVE('',#353,#342,#218,.T.);
#479=ORIENTED_EDGE('',*,*,#371,.F.);
#480=ORIENTED_EDGE('',*,*,#372,.F.);
#481=ORIENTED_EDGE('',*,*,#373,.F.);
#482=ORIENTED_EDGE('',*,*,#374,.F.);
#483=ORIENTED_EDGE('',*,*,#375,.F.);
#484=ORIENTED_EDGE('',*,*,#376,.F.);
#485=ORIENTED_EDGE('',*,*,#377,.F.);
#486=ORIENTED_EDGE('',*,*,#378,.F.);
#487=ORIENTED_EDGE('',*,*,#379,.F.);
#488=ORIENTED_EDGE('',*,*,#380,.F.);
#489=ORIENTED_EDGE('',*,*,#381,.F.);
#490=ORIENTED_EDGE('',*,*,#382,.T.);
#491=ORIENTED_EDGE('',*,*,#375,.T.);
#492=ORIENTED_EDGE('',*,*,#383,.T.);
#493=ORIENTED_EDGE('',*,*,#384,.T.);
#494=ORIENTED_EDGE('',*,*,#385,.F.);
#495=ORIENTED_EDGE('',*,*,#386,.F.);
#496=ORIENTED_EDGE('',*,*,#387,.F.);
#497=ORIENTED_EDGE('',*,*,#388,.T.);
#498=ORIENTED_EDGE('',*,*,#389,.T.);
#499=ORIENTED_EDGE('',*,*,#374,.T.);
#500=ORIENTED_EDGE('',*,*,#390,.F.);
#501=ORIENTED_EDGE('',*,*,#391,.F.);
#502=ORIENTED_EDGE('',*,*,#383,.F.);
#503=ORIENTED_EDGE('',*,*,#373,.T.);
#504=ORIENTED_EDGE('',*,*,#392,.T.);
#505=ORIENTED_EDGE('',*,*,#393,.T.);
#506=ORIENTED_EDGE('',*,*,#394,.T.);
#507=ORIENTED_EDGE('',*,*,#395,.F.);
#508=ORIENTED_EDGE('',*,*,#396,.T.);
#509=ORIENTED_EDGE('',*,*,#397,.T.);
#510=ORIENTED_EDGE('',*,*,#390,.T.);
#511=ORIENTED_EDGE('',*,*,#372,.T.);
#512=ORIENTED_EDGE('',*,*,#398,.F.);
#513=ORIENTED_EDGE('',*,*,#399,.F.);
#514=ORIENTED_EDGE('',*,*,#392,.F.);
#515=ORIENTED_EDGE('',*,*,#400,.F.);
#516=ORIENTED_EDGE('',*,*,#401,.F.);
#517=ORIENTED_EDGE('',*,*,#402,.F.);
#518=ORIENTED_EDGE('',*,*,#382,.F.);
#519=ORIENTED_EDGE('',*,*,#403,.F.);
#520=ORIENTED_EDGE('',*,*,#404,.F.);
#521=ORIENTED_EDGE('',*,*,#405,.F.);
#522=ORIENTED_EDGE('',*,*,#406,.F.);
#523=ORIENTED_EDGE('',*,*,#371,.T.);
#524=ORIENTED_EDGE('',*,*,#407,.T.);
#525=ORIENTED_EDGE('',*,*,#408,.T.);
#526=ORIENTED_EDGE('',*,*,#409,.F.);
#527=ORIENTED_EDGE('',*,*,#410,.F.);
#528=ORIENTED_EDGE('',*,*,#411,.F.);
#529=ORIENTED_EDGE('',*,*,#412,.T.);
#530=ORIENTED_EDGE('',*,*,#398,.T.);
#531=ORIENTED_EDGE('',*,*,#413,.T.);
#532=ORIENTED_EDGE('',*,*,#414,.T.);
#533=ORIENTED_EDGE('',*,*,#415,.T.);
#534=ORIENTED_EDGE('',*,*,#416,.T.);
#535=ORIENTED_EDGE('',*,*,#417,.T.);
#536=ORIENTED_EDGE('',*,*,#418,.T.);
#537=ORIENTED_EDGE('',*,*,#419,.T.);
#538=ORIENTED_EDGE('',*,*,#420,.T.);
#539=ORIENTED_EDGE('',*,*,#378,.T.);
#540=ORIENTED_EDGE('',*,*,#421,.F.);
#541=ORIENTED_EDGE('',*,*,#422,.F.);
#542=ORIENTED_EDGE('',*,*,#407,.F.);
#543=ORIENTED_EDGE('',*,*,#377,.T.);
#544=ORIENTED_EDGE('',*,*,#423,.T.);
#545=ORIENTED_EDGE('',*,*,#424,.T.);
#546=ORIENTED_EDGE('',*,*,#425,.T.);
#547=ORIENTED_EDGE('',*,*,#426,.F.);
#548=ORIENTED_EDGE('',*,*,#427,.T.);
#549=ORIENTED_EDGE('',*,*,#428,.T.);
#550=ORIENTED_EDGE('',*,*,#421,.T.);
#551=ORIENTED_EDGE('',*,*,#376,.T.);
#552=ORIENTED_EDGE('',*,*,#389,.F.);
#553=ORIENTED_EDGE('',*,*,#429,.F.);
#554=ORIENTED_EDGE('',*,*,#423,.F.);
#555=ORIENTED_EDGE('',*,*,#404,.T.);
#556=ORIENTED_EDGE('',*,*,#430,.F.);
#557=ORIENTED_EDGE('',*,*,#431,.F.);
#558=ORIENTED_EDGE('',*,*,#432,.F.);
#559=ORIENTED_EDGE('',*,*,#433,.T.);
#560=ORIENTED_EDGE('',*,*,#434,.T.);
#561=ORIENTED_EDGE('',*,*,#435,.T.);
#562=ORIENTED_EDGE('',*,*,#436,.T.);
#563=ORIENTED_EDGE('',*,*,#437,.T.);
#564=ORIENTED_EDGE('',*,*,#438,.T.);
#565=ORIENTED_EDGE('',*,*,#439,.T.);
#566=ORIENTED_EDGE('',*,*,#440,.T.);
#567=ORIENTED_EDGE('',*,*,#403,.T.);
#568=ORIENTED_EDGE('',*,*,#381,.T.);
#569=ORIENTED_EDGE('',*,*,#441,.T.);
#570=ORIENTED_EDGE('',*,*,#430,.T.);
#571=ORIENTED_EDGE('',*,*,#402,.T.);
#572=ORIENTED_EDGE('',*,*,#442,.T.);
#573=ORIENTED_EDGE('',*,*,#443,.T.);
#574=ORIENTED_EDGE('',*,*,#379,.T.);
#575=ORIENTED_EDGE('',*,*,#405,.T.);
#576=ORIENTED_EDGE('',*,*,#432,.T.);
#577=ORIENTED_EDGE('',*,*,#444,.T.);
#578=ORIENTED_EDGE('',*,*,#445,.T.);
#579=ORIENTED_EDGE('',*,*,#446,.F.);
#580=ORIENTED_EDGE('',*,*,#447,.T.);
#581=ORIENTED_EDGE('',*,*,#448,.T.);
#582=ORIENTED_EDGE('',*,*,#409,.T.);
#583=ORIENTED_EDGE('',*,*,#449,.F.);
#584=ORIENTED_EDGE('',*,*,#427,.F.);
#585=ORIENTED_EDGE('',*,*,#447,.F.);
#586=ORIENTED_EDGE('',*,*,#450,.T.);
#587=ORIENTED_EDGE('',*,*,#451,.F.);
#588=ORIENTED_EDGE('',*,*,#452,.F.);
#589=ORIENTED_EDGE('',*,*,#446,.T.);
#590=ORIENTED_EDGE('',*,*,#426,.T.);
#591=ORIENTED_EDGE('',*,*,#453,.T.);
#592=ORIENTED_EDGE('',*,*,#450,.F.);
#593=ORIENTED_EDGE('',*,*,#454,.F.);
#594=ORIENTED_EDGE('',*,*,#411,.T.);
#595=ORIENTED_EDGE('',*,*,#455,.T.);
#596=ORIENTED_EDGE('',*,*,#456,.T.);
#597=ORIENTED_EDGE('',*,*,#457,.F.);
#598=ORIENTED_EDGE('',*,*,#394,.F.);
#599=ORIENTED_EDGE('',*,*,#454,.T.);
#600=ORIENTED_EDGE('',*,*,#393,.F.);
#601=ORIENTED_EDGE('',*,*,#399,.T.);
#602=ORIENTED_EDGE('',*,*,#412,.F.);
#603=ORIENTED_EDGE('',*,*,#406,.T.);
#604=ORIENTED_EDGE('',*,*,#445,.F.);
#605=ORIENTED_EDGE('',*,*,#458,.F.);
#606=ORIENTED_EDGE('',*,*,#459,.F.);
#607=ORIENTED_EDGE('',*,*,#456,.F.);
#608=ORIENTED_EDGE('',*,*,#460,.F.);
#609=ORIENTED_EDGE('',*,*,#461,.F.);
#610=ORIENTED_EDGE('',*,*,#462,.T.);
#611=ORIENTED_EDGE('',*,*,#444,.F.);
#612=ORIENTED_EDGE('',*,*,#431,.T.);
#613=ORIENTED_EDGE('',*,*,#441,.F.);
#614=ORIENTED_EDGE('',*,*,#380,.T.);
#615=ORIENTED_EDGE('',*,*,#443,.F.);
#616=ORIENTED_EDGE('',*,*,#463,.T.);
#617=ORIENTED_EDGE('',*,*,#464,.F.);
#618=ORIENTED_EDGE('',*,*,#458,.T.);
#619=ORIENTED_EDGE('',*,*,#410,.T.);
#620=ORIENTED_EDGE('',*,*,#448,.F.);
#621=ORIENTED_EDGE('',*,*,#452,.T.);
#622=ORIENTED_EDGE('',*,*,#465,.F.);
#623=ORIENTED_EDGE('',*,*,#386,.T.);
#624=ORIENTED_EDGE('',*,*,#466,.F.);
#625=ORIENTED_EDGE('',*,*,#460,.T.);
#626=ORIENTED_EDGE('',*,*,#455,.F.);
#627=ORIENTED_EDGE('',*,*,#401,.T.);
#628=ORIENTED_EDGE('',*,*,#467,.F.);
#629=ORIENTED_EDGE('',*,*,#463,.F.);
#630=ORIENTED_EDGE('',*,*,#442,.F.);
#631=ORIENTED_EDGE('',*,*,#400,.T.);
#632=ORIENTED_EDGE('',*,*,#459,.T.);
#633=ORIENTED_EDGE('',*,*,#464,.T.);
#634=ORIENTED_EDGE('',*,*,#467,.T.);
#635=ORIENTED_EDGE('',*,*,#468,.F.);
#636=ORIENTED_EDGE('',*,*,#461,.T.);
#637=ORIENTED_EDGE('',*,*,#466,.T.);
#638=ORIENTED_EDGE('',*,*,#385,.T.);
#639=ORIENTED_EDGE('',*,*,#469,.F.);
#640=ORIENTED_EDGE('',*,*,#396,.F.);
#641=ORIENTED_EDGE('',*,*,#457,.T.);
#642=ORIENTED_EDGE('',*,*,#462,.F.);
#643=ORIENTED_EDGE('',*,*,#468,.T.);
#644=ORIENTED_EDGE('',*,*,#395,.T.);
#645=ORIENTED_EDGE('',*,*,#470,.F.);
#646=ORIENTED_EDGE('',*,*,#387,.T.);
#647=ORIENTED_EDGE('',*,*,#465,.T.);
#648=ORIENTED_EDGE('',*,*,#451,.T.);
#649=ORIENTED_EDGE('',*,*,#453,.F.);
#650=ORIENTED_EDGE('',*,*,#425,.F.);
#651=ORIENTED_EDGE('',*,*,#470,.T.);
#652=ORIENTED_EDGE('',*,*,#424,.F.);
#653=ORIENTED_EDGE('',*,*,#429,.T.);
#654=ORIENTED_EDGE('',*,*,#388,.F.);
#655=ORIENTED_EDGE('',*,*,#469,.T.);
#656=ORIENTED_EDGE('',*,*,#384,.F.);
#657=ORIENTED_EDGE('',*,*,#391,.T.);
#658=ORIENTED_EDGE('',*,*,#397,.F.);
#659=ORIENTED_EDGE('',*,*,#449,.T.);
#660=ORIENTED_EDGE('',*,*,#408,.F.);
#661=ORIENTED_EDGE('',*,*,#422,.T.);
#662=ORIENTED_EDGE('',*,*,#428,.F.);
#663=ORIENTED_EDGE('',*,*,#433,.F.);
#664=ORIENTED_EDGE('',*,*,#471,.T.);
#665=ORIENTED_EDGE('',*,*,#413,.F.);
#666=ORIENTED_EDGE('',*,*,#472,.F.);
#667=ORIENTED_EDGE('',*,*,#440,.F.);
#668=ORIENTED_EDGE('',*,*,#473,.T.);
#669=ORIENTED_EDGE('',*,*,#414,.F.);
#670=ORIENTED_EDGE('',*,*,#471,.F.);
#671=ORIENTED_EDGE('',*,*,#439,.F.);
#672=ORIENTED_EDGE('',*,*,#474,.T.);
#673=ORIENTED_EDGE('',*,*,#415,.F.);
#674=ORIENTED_EDGE('',*,*,#473,.F.);
#675=ORIENTED_EDGE('',*,*,#438,.F.);
#676=ORIENTED_EDGE('',*,*,#475,.T.);
#677=ORIENTED_EDGE('',*,*,#416,.F.);
#678=ORIENTED_EDGE('',*,*,#474,.F.);
#679=ORIENTED_EDGE('',*,*,#437,.F.);
#680=ORIENTED_EDGE('',*,*,#476,.T.);
#681=ORIENTED_EDGE('',*,*,#417,.F.);
#682=ORIENTED_EDGE('',*,*,#475,.F.);
#683=ORIENTED_EDGE('',*,*,#436,.F.);
#684=ORIENTED_EDGE('',*,*,#477,.T.);
#685=ORIENTED_EDGE('',*,*,#418,.F.);
#686=ORIENTED_EDGE('',*,*,#476,.F.);
#687=ORIENTED_EDGE('',*,*,#435,.F.);
#688=ORIENTED_EDGE('',*,*,#478,.T.);
#689=ORIENTED_EDGE('',*,*,#419,.F.);
#690=ORIENTED_EDGE('',*,*,#477,.F.);
#691=ORIENTED_EDGE('',*,*,#434,.F.);
#692=ORIENTED_EDGE('',*,*,#472,.T.);
#693=ORIENTED_EDGE('',*,*,#420,.F.);
#694=ORIENTED_EDGE('',*,*,#478,.F.);
#695=PLANE('',#775);
#696=PLANE('',#776);
#697=PLANE('',#777);
#698=PLANE('',#778);
#699=PLANE('',#779);
#700=PLANE('',#780);
#701=PLANE('',#781);
#702=PLANE('',#786);
#703=PLANE('',#791);
#704=PLANE('',#792);
#705=PLANE('',#793);
#706=PLANE('',#794);
#707=PLANE('',#809);
#708=PLANE('',#810);
#709=PLANE('',#816);
#710=PLANE('',#817);
#711=PLANE('',#818);
#712=PLANE('',#819);
#713=PLANE('',#823);
#714=PLANE('',#828);
#715=PLANE('',#831);
#716=PLANE('',#832);
#717=PLANE('',#833);
#718=PLANE('',#834);
#719=PLANE('',#836);
#720=PLANE('',#838);
#721=PLANE('',#840);
#722=ADVANCED_FACE('',(#58),#695,.T.);
#723=ADVANCED_FACE('',(#59),#696,.T.);
#724=ADVANCED_FACE('',(#60),#697,.T.);
#725=ADVANCED_FACE('',(#61),#698,.T.);
#726=ADVANCED_FACE('',(#62),#699,.T.);
#727=ADVANCED_FACE('',(#63),#700,.T.);
#728=ADVANCED_FACE('',(#64),#701,.F.);
#729=ADVANCED_FACE('',(#65,#27),#702,.T.);
#730=ADVANCED_FACE('',(#66),#703,.T.);
#731=ADVANCED_FACE('',(#67),#704,.T.);
#732=ADVANCED_FACE('',(#68),#705,.T.);
#733=ADVANCED_FACE('',(#69,#28),#706,.T.);
#734=ADVANCED_FACE('',(#70),#15,.T.);
#735=ADVANCED_FACE('',(#71),#16,.T.);
#736=ADVANCED_FACE('',(#72),#17,.T.);
#737=ADVANCED_FACE('',(#73),#18,.F.);
#738=ADVANCED_FACE('',(#74),#707,.T.);
#739=ADVANCED_FACE('',(#75),#708,.T.);
#740=ADVANCED_FACE('',(#76),#19,.F.);
#741=ADVANCED_FACE('',(#77),#709,.T.);
#742=ADVANCED_FACE('',(#78),#710,.T.);
#743=ADVANCED_FACE('',(#79),#711,.T.);
#744=ADVANCED_FACE('',(#80,#29),#712,.T.);
#745=ADVANCED_FACE('',(#81),#713,.T.);
#746=ADVANCED_FACE('',(#82),#20,.T.);
#747=ADVANCED_FACE('',(#83),#21,.F.);
#748=ADVANCED_FACE('',(#84),#714,.T.);
#749=ADVANCED_FACE('',(#85),#22,.F.);
#750=ADVANCED_FACE('',(#86),#715,.T.);
#751=ADVANCED_FACE('',(#87),#716,.T.);
#752=ADVANCED_FACE('',(#88),#717,.T.);
#753=ADVANCED_FACE('',(#89),#718,.F.);
#754=ADVANCED_FACE('',(#90),#23,.F.);
#755=ADVANCED_FACE('',(#91),#719,.F.);
#756=ADVANCED_FACE('',(#92),#24,.F.);
#757=ADVANCED_FACE('',(#93),#720,.F.);
#758=ADVANCED_FACE('',(#94),#25,.F.);
#759=ADVANCED_FACE('',(#95),#721,.F.);
#760=ADVANCED_FACE('',(#96),#26,.F.);
#761=CLOSED_SHELL('',(#722,#723,#724,#725,#726,#727,#728,#729,#730,#731,
#732,#733,#734,#735,#736,#737,#738,#739,#740,#741,#742,#743,#744,#745,#746,
#747,#748,#749,#750,#751,#752,#753,#754,#755,#756,#757,#758,#759,#760));
#762=DERIVED_UNIT_ELEMENT(#764,1.);
#763=DERIVED_UNIT_ELEMENT(#1283,-3.);
#764=(
MASS_UNIT()
NAMED_UNIT(*)
SI_UNIT(.KILO.,.GRAM.)
);
#765=DERIVED_UNIT((#762,#763));
#766=MEASURE_REPRESENTATION_ITEM('density measure',
POSITIVE_RATIO_MEASURE(7850.),#765);
#767=PROPERTY_DEFINITION_REPRESENTATION(#772,#769);
#768=PROPERTY_DEFINITION_REPRESENTATION(#773,#770);
#769=REPRESENTATION('material name',(#771),#1280);
#770=REPRESENTATION('density',(#766),#1280);
#771=DESCRIPTIVE_REPRESENTATION_ITEM('Acier','Acier');
#772=PROPERTY_DEFINITION('material property','material name',#1290);
#773=PROPERTY_DEFINITION('material property','density of part',#1290);
#774=AXIS2_PLACEMENT_3D('',#1058,#842,#843);
#775=AXIS2_PLACEMENT_3D('',#1059,#844,#845);
#776=AXIS2_PLACEMENT_3D('',#1076,#854,#855);
#777=AXIS2_PLACEMENT_3D('',#1085,#860,#861);
#778=AXIS2_PLACEMENT_3D('',#1099,#869,#870);
#779=AXIS2_PLACEMENT_3D('',#1103,#873,#874);
#780=AXIS2_PLACEMENT_3D('',#1115,#881,#882);
#781=AXIS2_PLACEMENT_3D('',#1119,#885,#886);
#782=AXIS2_PLACEMENT_3D('',#1122,#887,#888);
#783=AXIS2_PLACEMENT_3D('',#1125,#890,#891);
#784=AXIS2_PLACEMENT_3D('',#1127,#892,#893);
#785=AXIS2_PLACEMENT_3D('',#1131,#895,#896);
#786=AXIS2_PLACEMENT_3D('',#1133,#898,#899);
#787=AXIS2_PLACEMENT_3D('',#1149,#907,#908);
#788=AXIS2_PLACEMENT_3D('',#1153,#910,#911);
#789=AXIS2_PLACEMENT_3D('',#1157,#913,#914);
#790=AXIS2_PLACEMENT_3D('',#1160,#916,#917);
#791=AXIS2_PLACEMENT_3D('',#1161,#918,#919);
#792=AXIS2_PLACEMENT_3D('',#1165,#922,#923);
#793=AXIS2_PLACEMENT_3D('',#1177,#930,#931);
#794=AXIS2_PLACEMENT_3D('',#1179,#933,#934);
#795=AXIS2_PLACEMENT_3D('',#1189,#939,#940);
#796=AXIS2_PLACEMENT_3D('',#1193,#942,#943);
#797=AXIS2_PLACEMENT_3D('',#1197,#945,#946);
#798=AXIS2_PLACEMENT_3D('',#1200,#948,#949);
#799=AXIS2_PLACEMENT_3D('',#1201,#950,#951);
#800=AXIS2_PLACEMENT_3D('',#1202,#952,#953);
#801=AXIS2_PLACEMENT_3D('',#1203,#954,#955);
#802=AXIS2_PLACEMENT_3D('',#1206,#957,#958);
#803=AXIS2_PLACEMENT_3D('',#1207,#959,#960);
#804=AXIS2_PLACEMENT_3D('',#1209,#961,#962);
#805=AXIS2_PLACEMENT_3D('',#1211,#964,#965);
#806=AXIS2_PLACEMENT_3D('',#1213,#966,#967);
#807=AXIS2_PLACEMENT_3D('',#1216,#969,#970);
#808=AXIS2_PLACEMENT_3D('',#1217,#971,#972);
#809=AXIS2_PLACEMENT_3D('',#1218,#973,#974);
#810=AXIS2_PLACEMENT_3D('',#1224,#978,#979);
#811=AXIS2_PLACEMENT_3D('',#1225,#980,#981);
#812=AXIS2_PLACEMENT_3D('',#1226,#982,#983);
#813=AXIS2_PLACEMENT_3D('',#1227,#984,#985);
#814=AXIS2_PLACEMENT_3D('',#1229,#986,#987);
#815=AXIS2_PLACEMENT_3D('',#1232,#989,#990);
#816=AXIS2_PLACEMENT_3D('',#1233,#991,#992);
#817=AXIS2_PLACEMENT_3D('',#1234,#993,#994);
#818=AXIS2_PLACEMENT_3D('',#1238,#997,#998);
#819=AXIS2_PLACEMENT_3D('',#1244,#1002,#1003);
#820=AXIS2_PLACEMENT_3D('',#1247,#1005,#1006);
#821=AXIS2_PLACEMENT_3D('',#1248,#1007,#1008);
#822=AXIS2_PLACEMENT_3D('',#1249,#1009,#1010);
#823=AXIS2_PLACEMENT_3D('',#1250,#1011,#1012);
#824=AXIS2_PLACEMENT_3D('',#1252,#1014,#1015);
#825=AXIS2_PLACEMENT_3D('',#1253,#1016,#1017);
#826=AXIS2_PLACEMENT_3D('',#1254,#1018,#1019);
#827=AXIS2_PLACEMENT_3D('',#1255,#1020,#1021);
#828=AXIS2_PLACEMENT_3D('',#1256,#1022,#1023);
#829=AXIS2_PLACEMENT_3D('',#1257,#1024,#1025);
#830=AXIS2_PLACEMENT_3D('',#1258,#1026,#1027);
#831=AXIS2_PLACEMENT_3D('',#1259,#1028,#1029);
#832=AXIS2_PLACEMENT_3D('',#1260,#1030,#1031);
#833=AXIS2_PLACEMENT_3D('',#1261,#1032,#1033);
#834=AXIS2_PLACEMENT_3D('',#1262,#1034,#1035);
#835=AXIS2_PLACEMENT_3D('',#1265,#1038,#1039);
#836=AXIS2_PLACEMENT_3D('',#1267,#1041,#1042);
#837=AXIS2_PLACEMENT_3D('',#1269,#1044,#1045);
#838=AXIS2_PLACEMENT_3D('',#1271,#1047,#1048);
#839=AXIS2_PLACEMENT_3D('',#1273,#1050,#1051);
#840=AXIS2_PLACEMENT_3D('',#1275,#1053,#1054);
#841=AXIS2_PLACEMENT_3D('',#1277,#1056,#1057);
#842=DIRECTION('axis',(0.,0.,1.));
#843=DIRECTION('refdir',(1.,0.,0.));
#844=DIRECTION('center_axis',(0.,0.,1.));
#845=DIRECTION('ref_axis',(0.,1.,0.));
#846=DIRECTION('',(3.6144008007389E-17,1.,0.));
#847=DIRECTION('',(-0.701673848467767,0.712498287981405,0.));
#848=DIRECTION('',(-1.,2.44617343220097E-16,0.));
#849=DIRECTION('',(-0.701673837851959,-0.712498298435935,0.));
#850=DIRECTION('',(2.89152064059112E-16,-1.,0.));
#851=DIRECTION('',(0.701673843159863,-0.71249829320867,0.));
#852=DIRECTION('',(1.,-7.99494974967065E-14,0.));
#853=DIRECTION('',(0.701673843159853,0.71249829320868,0.));
#854=DIRECTION('center_axis',(2.43043569313738E-18,-0.984807753012208,0.17364817766693));
#855=DIRECTION('ref_axis',(1.,2.3935119137993E-18,-4.22040729049969E-19));
#856=DIRECTION('',(0.,-0.17364817766693,-0.984807753012208));
#857=DIRECTION('',(1.,2.3935119137993E-18,-4.22040729049969E-19));
#858=DIRECTION('',(0.,0.17364817766693,0.984807753012208));
#859=DIRECTION('',(1.,2.46792908128868E-18,0.));
#860=DIRECTION('center_axis',(-1.,-2.89152064059112E-16,5.09853104211638E-17));
#861=DIRECTION('ref_axis',(2.93612700727314E-16,-0.984807753012208,0.17364817766693));
#862=DIRECTION('',(0.,0.17364817766693,0.984807753012208));
#863=DIRECTION('',(2.93612700727314E-16,-0.984807753012208,0.17364817766693));
#864=DIRECTION('',(0.,-0.17364817766693,-0.984807753012208));
#865=DIRECTION('',(2.93612700727314E-16,-0.984807753012208,0.17364817766693));
#866=DIRECTION('',(0.,0.17364817766693,0.984807753012208));
#867=DIRECTION('',(2.93612700727314E-16,-0.984807753012208,0.17364817766693));
#868=DIRECTION('',(0.,-0.17364817766693,-0.984807753012208));
#869=DIRECTION('center_axis',(-0.707106786454904,0.696364235131701,-0.122787803054132));
#870=DIRECTION('ref_axis',(-0.707106775918191,-0.696364245508337,0.122787804883813));
#871=DIRECTION('',(0.,-0.17364817766693,-0.984807753012208));
#872=DIRECTION('',(-0.707106775918191,-0.696364245508337,0.122787804883813));
#873=DIRECTION('center_axis',(2.409010561244E-16,0.984807753012208,-0.17364817766693));
#874=DIRECTION('ref_axis',(1.,-2.37241227780138E-16,4.18320293940409E-17));
#875=DIRECTION('',(0.,0.17364817766693,0.984807753012208));
#876=DIRECTION('',(-1.,2.37241227780138E-16,-4.18320293940409E-17));
#877=DIRECTION('',(0.,0.17364817766693,0.984807753012208));
#878=DIRECTION('',(-1.,2.37241227780138E-16,-4.18320293940409E-17));
#879=DIRECTION('',(0.,-0.17364817766693,-0.984807753012208));
#880=DIRECTION('',(-1.,2.37241227780138E-16,-4.18320293940409E-17));
#881=DIRECTION('center_axis',(0.707106775918192,0.696364245508337,-0.122787804883813));
#882=DIRECTION('ref_axis',(-0.707106786454903,0.696364235131701,-0.122787803054132));
#883=DIRECTION('',(0.,-0.17364817766693,-0.984807753012208));
#884=DIRECTION('',(-0.707106786454903,0.696364235131701,-0.122787803054132));
#885=DIRECTION('center_axis',(0.,0.,1.));
#886=DIRECTION('ref_axis',(0.,1.,0.));
#887=DIRECTION('center_axis',(0.,0.,1.));
#888=DIRECTION('ref_axis',(0.,1.,0.));
#889=DIRECTION('',(-2.89152064059112E-16,1.,0.));
#890=DIRECTION('center_axis',(0.,0.,1.));
#891=DIRECTION('ref_axis',(6.83347651389695E-16,-1.,0.));
#892=DIRECTION('center_axis',(0.,0.,1.));
#893=DIRECTION('ref_axis',(2.0500429541691E-16,-1.,0.));
#894=DIRECTION('',(-4.06620090083126E-17,-1.,0.));
#895=DIRECTION('center_axis',(0.,0.,1.));
#896=DIRECTION('ref_axis',(1.84503865875219E-15,1.,0.));
#897=DIRECTION('',(-1.,-7.89737306012376E-17,0.));
#898=DIRECTION('center_axis',(1.,-3.6144008007389E-17,6.37316380264548E-18));
#899=DIRECTION('ref_axis',(3.67015875909143E-17,0.984807753012208,-0.17364817766693));
#900=DIRECTION('',(0.,0.17364817766693,0.984807753012208));
#901=DIRECTION('',(3.67015875909143E-17,0.984807753012208,-0.17364817766693));
#902=DIRECTION('',(0.,-0.17364817766693,-0.984807753012208));
#903=DIRECTION('',(3.67015875909143E-17,0.984807753012208,-0.17364817766693));
#904=DIRECTION('',(0.,0.17364817766693,0.984807753012208));
#905=DIRECTION('',(3.67015875909143E-17,0.984807753012208,-0.17364817766693));
#906=DIRECTION('',(3.67015875909143E-17,0.984807753012208,-0.17364817766693));
#907=DIRECTION('center_axis',(-1.,3.6144008007389E-17,-6.37316380264548E-18));
#908=DIRECTION('ref_axis',(0.,0.173648177666933,0.984807753012208));
#909=DIRECTION('',(1.25375223334554E-31,-0.173648177666927,-0.984807753012209));
#910=DIRECTION('center_axis',(-1.,3.6144008007389E-17,-6.37316380264548E-18));
#911=DIRECTION('ref_axis',(0.,0.984807753012208,-0.173648177666932));
#912=DIRECTION('',(-3.67015875909143E-17,-0.984807753012208,0.17364817766693));
#913=DIRECTION('center_axis',(-1.,3.6144008007389E-17,-6.37316380264548E-18));
#914=DIRECTION('ref_axis',(0.,-0.17364817766693,-0.984807753012208));
#915=DIRECTION('',(0.,0.17364817766693,0.984807753012208));
#916=DIRECTION('center_axis',(-1.,3.6144008007389E-17,-6.37316380264548E-18));
#917=DIRECTION('ref_axis',(0.,-0.984807753012208,0.17364817766693));
#918=DIRECTION('center_axis',(0.707106781186558,-0.696364240320009,0.122787803968971));
#919=DIRECTION('ref_axis',(0.707106781186537,0.696364240320029,-0.122787803968975));
#920=DIRECTION('',(0.,-0.17364817766693,-0.984807753012208));
#921=DIRECTION('',(0.707106781186537,0.696364240320029,-0.122787803968975));
#922=DIRECTION('center_axis',(-7.87348849841867E-14,-0.984807753012208,
0.17364817766693));
#923=DIRECTION('ref_axis',(-1.,7.75387251649515E-14,-1.36721692963194E-14));
#924=DIRECTION('',(0.,0.17364817766693,0.984807753012208));
#925=DIRECTION('',(1.,-7.75387251649515E-14,1.36721692963194E-14));
#926=DIRECTION('',(0.,0.17364817766693,0.984807753012208));
#927=DIRECTION('',(1.,-7.75387251649515E-14,1.36721692963194E-14));
#928=DIRECTION('',(0.,-0.17364817766693,-0.984807753012208));
#929=DIRECTION('',(1.,-7.75387251649515E-14,1.36721692963194E-14));
#930=DIRECTION('center_axis',(-0.707106781186548,-0.696364240320019,0.122787803968973));
#931=DIRECTION('ref_axis',(0.707106781186547,-0.69636424032002,0.122787803968973));
#932=DIRECTION('',(0.707106781186547,-0.69636424032002,0.122787803968973));
#933=DIRECTION('center_axis',(-1.,4.06620090083126E-17,-7.16980927797616E-18));
#934=DIRECTION('ref_axis',(-4.12892860397785E-17,-0.984807753012208,0.17364817766693));
#935=DIRECTION('',(0.,-0.17364817766693,-0.984807753012208));
#936=DIRECTION('',(-4.12892860397785E-17,-0.984807753012208,0.17364817766693));
#937=DIRECTION('',(0.,0.17364817766693,0.984807753012208));
#938=DIRECTION('',(-4.12892860397785E-17,-0.984807753012208,0.17364817766693));
#939=DIRECTION('center_axis',(1.,-4.06620090083126E-17,7.16980927797616E-18));
#940=DIRECTION('ref_axis',(0.,-0.984807753012208,0.17364817766693));
#941=DIRECTION('',(0.,-0.17364817766693,-0.984807753012208));
#942=DIRECTION('center_axis',(1.,-4.06620090083126E-17,7.16980927797616E-18));
#943=DIRECTION('ref_axis',(0.,-0.17364817766693,-0.984807753012208));
#944=DIRECTION('',(4.12892860397785E-17,0.984807753012208,-0.17364817766693));
#945=DIRECTION('center_axis',(1.,-4.06620090083126E-17,7.16980927797616E-18));
#946=DIRECTION('ref_axis',(0.,0.984807753012208,-0.173648177666932));
#947=DIRECTION('',(-1.41047126251373E-31,0.173648177666927,0.984807753012209));
#948=DIRECTION('center_axis',(1.,-4.06620090083126E-17,7.16980927797616E-18));
#949=DIRECTION('ref_axis',(0.,0.173648177666933,0.984807753012208));
#950=DIRECTION('center_axis',(0.,0.17364817766693,0.984807753012208));
#951=DIRECTION('ref_axis',(-0.707106781186547,-0.696364240320019,0.122787803968973));
#952=DIRECTION('center_axis',(0.,-0.17364817766693,-0.984807753012208));
#953=DIRECTION('ref_axis',(-0.707106781186547,-0.696364240320019,0.122787803968973));
#954=DIRECTION('center_axis',(0.,-0.17364817766693,-0.984807753012208));
#955=DIRECTION('ref_axis',(0.707106781186548,-0.696364240320019,0.122787803968973));
#956=DIRECTION('',(0.,0.17364817766693,0.984807753012208));
#957=DIRECTION('center_axis',(0.,-0.17364817766693,-0.984807753012208));
#958=DIRECTION('ref_axis',(0.707106781186548,-0.696364240320019,0.122787803968973));
#959=DIRECTION('center_axis',(0.,-0.17364817766693,-0.984807753012208));
#960=DIRECTION('ref_axis',(-0.707106781186546,0.69636424032002,-0.122787803968973));
#961=DIRECTION('center_axis',(0.,-0.17364817766693,-0.984807753012208));
#962=DIRECTION('ref_axis',(-0.707106781186546,0.69636424032002,-0.122787803968973));
#963=DIRECTION('',(0.,-0.17364817766693,-0.984807753012208));
#964=DIRECTION('center_axis',(0.,-0.17364817766693,-0.984807753012208));
#965=DIRECTION('ref_axis',(-0.707106781186548,0.696364240320018,-0.122787803968973));
#966=DIRECTION('center_axis',(0.,0.17364817766693,0.984807753012208));
#967=DIRECTION('ref_axis',(-0.707106781186548,0.696364240320018,-0.122787803968973));
#968=DIRECTION('',(0.,0.17364817766693,0.984807753012208));
#969=DIRECTION('center_axis',(0.,0.17364817766693,0.984807753012208));
#970=DIRECTION('ref_axis',(-0.707106781186548,0.696364240320018,-0.122787803968973));
#971=DIRECTION('center_axis',(0.,0.17364817766693,0.984807753012208));
#972=DIRECTION('ref_axis',(-0.707106781186548,0.696364240320018,-0.122787803968973));
#973=DIRECTION('center_axis',(7.77739421803963E-17,-0.984807753012208,0.17364817766693));
#974=DIRECTION('ref_axis',(1.,7.65923812415774E-17,-1.3505303329599E-17));
#975=DIRECTION('',(1.,7.65923812415774E-17,-1.3505303329599E-17));
#976=DIRECTION('',(0.,-0.17364817766693,-0.984807753012208));
#977=DIRECTION('',(1.,7.65923812415774E-17,-1.3505303329599E-17));
#978=DIRECTION('center_axis',(0.,0.17364817766693,0.984807753012208));
#979=DIRECTION('ref_axis',(1.,0.,0.));
#980=DIRECTION('center_axis',(0.,0.17364817766693,0.984807753012208));
#981=DIRECTION('ref_axis',(0.707106781186552,0.696364240320015,-0.122787803968972));
#982=DIRECTION('center_axis',(0.,0.17364817766693,0.984807753012208));
#983=DIRECTION('ref_axis',(-0.707106781186548,-0.696364240320019,0.122787803968973));
#984=DIRECTION('center_axis',(0.,0.17364817766693,0.984807753012208));
#985=DIRECTION('ref_axis',(-0.707106781186548,-0.696364240320019,0.122787803968973));
#986=DIRECTION('center_axis',(0.,0.17364817766693,0.984807753012208));
#987=DIRECTION('ref_axis',(-0.707106781186548,-0.696364240320019,0.122787803968973));
#988=DIRECTION('',(0.,-0.17364817766693,-0.984807753012208));
#989=DIRECTION('center_axis',(0.,0.17364817766693,0.984807753012208));
#990=DIRECTION('ref_axis',(-0.707106781186548,-0.696364240320019,0.122787803968973));
#991=DIRECTION('center_axis',(0.,0.17364817766693,0.984807753012208));
#992=DIRECTION('ref_axis',(-1.,0.,0.));
#993=DIRECTION('center_axis',(-7.77739421803963E-17,0.984807753012208,-0.17364817766693));
#994=DIRECTION('ref_axis',(-1.,-7.65923812415774E-17,1.3505303329599E-17));
#995=DIRECTION('',(-1.,-7.65923812415774E-17,1.3505303329599E-17));
#996=DIRECTION('',(0.,0.17364817766693,0.984807753012208));
#997=DIRECTION('center_axis',(0.,0.984807753012208,-0.17364817766693));
#998=DIRECTION('ref_axis',(-1.,0.,0.));
#999=DIRECTION('',(-1.,0.,0.));
#1000=DIRECTION('',(0.,0.17364817766693,0.984807753012208));
#1001=DIRECTION('',(-1.,0.,0.));
#1002=DIRECTION('center_axis',(0.,0.17364817766693,0.984807753012208));
#1003=DIRECTION('ref_axis',(1.,0.,0.));
#1004=DIRECTION('',(-2.93612700727314E-16,0.984807753012208,-0.17364817766693));
#1005=DIRECTION('center_axis',(0.,-0.17364817766693,-0.984807753012208));
#1006=DIRECTION('ref_axis',(0.707106781186548,0.696364240320019,-0.122787803968973));
#1007=DIRECTION('center_axis',(0.,0.17364817766693,0.984807753012208));
#1008=DIRECTION('ref_axis',(0.707106781186552,0.696364240320015,-0.122787803968972));
#1009=DIRECTION('center_axis',(0.,0.17364817766693,0.984807753012208));
#1010=DIRECTION('ref_axis',(0.707106781186547,-0.69636424032002,0.122787803968973));
#1011=DIRECTION('center_axis',(1.,2.89152064059112E-16,-5.09853104211638E-17));
#1012=DIRECTION('ref_axis',(-2.93612700727314E-16,0.984807753012208,-0.17364817766693));
#1013=DIRECTION('',(0.,-0.17364817766693,-0.984807753012208));
#1014=DIRECTION('center_axis',(0.,0.17364817766693,0.984807753012208));
#1015=DIRECTION('ref_axis',(0.707106781186548,0.696364240320019,-0.122787803968973));
#1016=DIRECTION('center_axis',(0.,-0.17364817766693,-0.984807753012208));
#1017=DIRECTION('ref_axis',(0.707106781186547,-0.69636424032002,0.122787803968973));
#1018=DIRECTION('center_axis',(0.,0.17364817766693,0.984807753012208));
#1019=DIRECTION('ref_axis',(0.707106781186547,-0.69636424032002,0.122787803968973));
#1020=DIRECTION('center_axis',(0.,0.17364817766693,0.984807753012208));
#1021=DIRECTION('ref_axis',(0.707106781186547,-0.69636424032002,0.122787803968973));
#1022=DIRECTION('center_axis',(0.,0.17364817766693,0.984807753012208));
#1023=DIRECTION('ref_axis',(1.,0.,0.));
#1024=DIRECTION('center_axis',(0.,0.17364817766693,0.984807753012208));
#1025=DIRECTION('ref_axis',(0.707106781186552,0.696364240320015,-0.122787803968972));
#1026=DIRECTION('center_axis',(0.,0.17364817766693,0.984807753012208));
#1027=DIRECTION('ref_axis',(0.707106781186552,0.696364240320015,-0.122787803968972));
#1028=DIRECTION('center_axis',(0.,0.17364817766693,0.984807753012208));
#1029=DIRECTION('ref_axis',(-1.,0.,0.));
#1030=DIRECTION('center_axis',(0.,0.17364817766693,0.984807753012208));
#1031=DIRECTION('ref_axis',(-1.,0.,0.));
#1032=DIRECTION('center_axis',(0.,0.17364817766693,0.984807753012208));
#1033=DIRECTION('ref_axis',(-1.,0.,0.));
#1034=DIRECTION('center_axis',(0.,0.17364817766693,0.984807753012208));
#1035=DIRECTION('ref_axis',(0.,-0.984807753012208,0.17364817766693));
#1036=DIRECTION('',(1.,0.,0.));
#1037=DIRECTION('',(1.,0.,0.));
#1038=DIRECTION('center_axis',(1.,0.,0.));
#1039=DIRECTION('ref_axis',(0.,0.173648177666933,0.984807753012208));
#1040=DIRECTION('',(1.,0.,0.));
#1041=DIRECTION('center_axis',(0.,0.984807753012209,-0.173648177666927));
#1042=DIRECTION('ref_axis',(0.,0.173648177666927,0.984807753012209));
#1043=DIRECTION('',(1.,0.,0.));
#1044=DIRECTION('center_axis',(1.,0.,0.));
#1045=DIRECTION('ref_axis',(0.,0.984807753012208,-0.173648177666932));
#1046=DIRECTION('',(1.,0.,0.));
#1047=DIRECTION('center_axis',(0.,-0.17364817766693,-0.984807753012208));
#1048=DIRECTION('ref_axis',(0.,0.984807753012208,-0.17364817766693));
#1049=DIRECTION('',(1.,0.,0.));
#1050=DIRECTION('center_axis',(1.,0.,0.));
#1051=DIRECTION('ref_axis',(0.,-0.17364817766693,-0.984807753012208));
#1052=DIRECTION('',(1.,0.,0.));
#1053=DIRECTION('center_axis',(0.,-0.984807753012208,0.17364817766693));
#1054=DIRECTION('ref_axis',(0.,-0.17364817766693,-0.984807753012208));
#1055=DIRECTION('',(1.,0.,0.));
#1056=DIRECTION('center_axis',(1.,0.,0.));
#1057=DIRECTION('ref_axis',(0.,-0.984807753012208,0.17364817766693));
#1058=CARTESIAN_POINT('',(0.,0.,0.));
#1059=CARTESIAN_POINT('Origin',(121.3,-12.0000001788139,2.));
#1060=CARTESIAN_POINT('',(-0.1,4.87369741824096,2.));
#1061=CARTESIAN_POINT('',(-0.0999999999999956,60.2144477660139,2.));
#1062=CARTESIAN_POINT('',(-0.0999999999999979,-3.6621436950479,2.));
#1063=CARTESIAN_POINT('',(4.90000007450579,-0.203435641187749,2.));
#1064=CARTESIAN_POINT('',(36.1667084967089,-31.9524829660673,2.));
#1065=CARTESIAN_POINT('',(115.299999985099,-0.203435641187781,2.));
#1066=CARTESIAN_POINT('',(61.0319660112501,-0.203435641187765,2.));
#1067=CARTESIAN_POINT('',(120.3,4.87369750902717,2.));
#1068=CARTESIAN_POINT('',(116.626609227332,1.14363870702269,2.));
#1069=CARTESIAN_POINT('',(120.3,60.2144477660141,2.));
#1070=CARTESIAN_POINT('',(120.3,26.1282908335714,2.));
#1071=CARTESIAN_POINT('',(115.300000000004,65.2915808254384,2.));
#1072=CARTESIAN_POINT('',(136.254705624978,44.0136150896082,2.));
#1073=CARTESIAN_POINT('',(4.90000000000435,65.2915808254472,2.));
#1074=CARTESIAN_POINT('',(120.368033988755,65.291580825438,2.));
#1075=CARTESIAN_POINT('',(11.6151498132434,72.11032264861,2.));
#1076=CARTESIAN_POINT('Origin',(3.,0.736481776669301,18.8480775301221));
#1077=CARTESIAN_POINT('',(117.3,1.25742630967009,21.8025007891587));
#1078=CARTESIAN_POINT('',(117.3,-2.58694282637618,0.));
#1079=CARTESIAN_POINT('',(117.3,0.736481776669302,18.8480775301221));
#1080=CARTESIAN_POINT('',(2.9,1.25742630967009,21.8025007891587));
#1081=CARTESIAN_POINT('',(3.,1.25742630967009,21.8025007891587));
#1082=CARTESIAN_POINT('',(2.9,-2.58694282637618,0.));
#1083=CARTESIAN_POINT('',(2.9,0.736481776669301,18.8480775301221));
#1084=CARTESIAN_POINT('',(62.15,-2.58694282637618,0.));
#1085=CARTESIAN_POINT('Origin',(120.3,64.2565818459567,7.64777007060509));
#1086=CARTESIAN_POINT('',(120.3,7.10919160280264,14.6781170118916));
#1087=CARTESIAN_POINT('',(120.3,6.84871933630224,13.2009053823733));
#1088=CARTESIAN_POINT('',(120.3,4.15476825571736,15.1990615604177));
#1089=CARTESIAN_POINT('',(120.3,34.1914047446019,9.90279213769503));
#1090=CARTESIAN_POINT('',(120.3,5.19665732171894,21.107908078491));
#1091=CARTESIAN_POINT('',(120.3,4.67571278871815,18.1534848194544));
#1092=CARTESIAN_POINT('',(120.3,64.7775263789575,10.6021933296417));
#1093=CARTESIAN_POINT('',(120.3,5.19665732171892,21.107908078491));
#1094=CARTESIAN_POINT('',(120.3,63.7356373129559,4.69334681156846));
#1095=CARTESIAN_POINT('',(120.3,64.2565818459567,7.64777007060509));
#1096=CARTESIAN_POINT('',(120.3,60.7812140539193,5.21429134456925));
#1097=CARTESIAN_POINT('',(120.3,63.4894353747018,4.73675885598539));
#1098=CARTESIAN_POINT('',(120.3,60.5207417874189,3.73707971505094));
#1099=CARTESIAN_POINT('Origin',(120.3,6.06730253680106,8.76927049381834));
#1100=CARTESIAN_POINT('',(115.299999985099,2.1851527496929,15.5463579157516));
#1101=CARTESIAN_POINT('',(115.299999985099,1.92468048319252,14.0691462862333));
#1102=CARTESIAN_POINT('',(114.3,1.20034499668072,15.7200060934185));
#1103=CARTESIAN_POINT('Origin',(0.763932022500207,2.70609728269373,18.5007811747882));
#1104=CARTESIAN_POINT('',(4.9000000745058,2.18515274969293,15.5463579157516));
#1105=CARTESIAN_POINT('',(4.90000007450579,1.92468048319255,14.0691462862333));
#1106=CARTESIAN_POINT('',(0.6639320225002,2.18515274969294,15.5463579157516));
#1107=CARTESIAN_POINT('',(1.53196602987655,2.18515274969294,15.5463579157516));
#1108=CARTESIAN_POINT('',(0.6639320225002,3.05339363802759,20.4703966808126));
#1109=CARTESIAN_POINT('',(0.663932022500199,2.70609728269373,18.5007811747882));
#1110=CARTESIAN_POINT('',(119.5360679775,3.05339363802756,20.4703966808126));
#1111=CARTESIAN_POINT('',(60.1,3.05339363802758,20.4703966808126));
#1112=CARTESIAN_POINT('',(119.5360679775,2.18515274969291,15.5463579157516));
#1113=CARTESIAN_POINT('',(119.5360679775,2.7060972826937,18.5007811747882));
#1114=CARTESIAN_POINT('',(59.3319660075248,2.18515274969293,15.5463579157516));
#1115=CARTESIAN_POINT('Origin',(4.9000000745058,1.14326368369135,9.63751139767835));
#1116=CARTESIAN_POINT('',(-0.0999999999999989,7.10919151475397,14.6781170274169));
#1117=CARTESIAN_POINT('',(-0.1,6.84871924825358,13.2009053978986));
#1118=CARTESIAN_POINT('',(5.90000008940697,1.20034499668072,15.7200060934185));
#1119=CARTESIAN_POINT('Origin',(121.3,-12.0000001788139,0.));
#1120=CARTESIAN_POINT('',(121.3,62.9080736402544,0.));
#1121=CARTESIAN_POINT('',(117.3,66.9697800877974,0.));
#1122=CARTESIAN_POINT('Origin',(117.3,62.9080736402544,0.));
#1123=CARTESIAN_POINT('',(121.3,1.47476362116682,0.));
#1124=CARTESIAN_POINT('',(121.3,-3.6621436950479,0.));
#1125=CARTESIAN_POINT('Origin',(117.3,1.47476362116682,0.));
#1126=CARTESIAN_POINT('',(-1.1,1.4747636211668,0.));
#1127=CARTESIAN_POINT('Origin',(2.9,1.4747636211668,0.));
#1128=CARTESIAN_POINT('',(-1.1,62.9080736402544,0.));
#1129=CARTESIAN_POINT('',(-1.09999999999999,26.1282908335714,0.));
#1130=CARTESIAN_POINT('',(2.89999999999999,66.9697800877973,0.));
#1131=CARTESIAN_POINT('Origin',(2.89999999999999,62.9080736402544,0.));
#1132=CARTESIAN_POINT('',(119.25,66.9697800877974,0.));
#1133=CARTESIAN_POINT('Origin',(-0.1,4.67571278871812,18.1534848194544));
#1134=CARTESIAN_POINT('',(-0.0999999999998235,60.7812140539193,5.21429134456925));
#1135=CARTESIAN_POINT('',(-0.0999999999999956,60.5207417874187,3.73707971505097));
#1136=CARTESIAN_POINT('',(-0.0999999999999984,63.7356373129559,4.69334681156846));
#1137=CARTESIAN_POINT('',(-0.1,19.29618745828,12.5292208287887));
#1138=CARTESIAN_POINT('',(-0.0999999999999978,64.7775263789575,10.6021933296417));
#1139=CARTESIAN_POINT('',(-0.0999999999999979,64.2565818459567,7.64777007060509));
#1140=CARTESIAN_POINT('',(-0.1,5.19665732171892,21.107908078491));
#1141=CARTESIAN_POINT('',(-0.0999999999999978,64.7775263789575,10.6021933296417));
#1142=CARTESIAN_POINT('',(-0.1,4.15476825571734,15.1990615604177));
#1143=CARTESIAN_POINT('',(-0.1,4.67571278871813,18.1534848194544));
#1144=CARTESIAN_POINT('',(-0.1,4.40097019397039,15.155649516001));
#1145=CARTESIAN_POINT('',(-0.0999999999999988,23.4453435420772,12.3053261364288));
#1146=CARTESIAN_POINT('',(-0.0999999999999988,30.3389978131627,11.0897888927603));
#1147=CARTESIAN_POINT('',(-0.0999999999999995,17.5364970313414,13.3472152011366));
#1148=CARTESIAN_POINT('',(-0.0999999999999988,31.5557371761806,9.35210499674161));
#1149=CARTESIAN_POINT('Origin',(-0.1,30.0785255466623,9.612577263242));
#1150=CARTESIAN_POINT('',(-0.0999999999999988,31.3299945452136,8.07185491782574));
#1151=CARTESIAN_POINT('',(-0.099999999999999,31.9377631528163,11.5186819726572));
#1152=CARTESIAN_POINT('',(-0.0999999999999988,29.5923106491949,6.85511555480782));
#1153=CARTESIAN_POINT('Origin',(-0.1,29.8527829156953,8.33232718432614));
#1154=CARTESIAN_POINT('',(-0.0999999999999988,22.6986563781094,8.07065279847634));
#1155=CARTESIAN_POINT('',(-0.0999999999999997,13.3429827318309,9.72031048501839));
#1156=CARTESIAN_POINT('',(-0.0999999999999988,21.4819170150915,9.80833669449505));
#1157=CARTESIAN_POINT('Origin',(-0.1,22.9591286446098,9.54786442799465));
#1158=CARTESIAN_POINT('',(-0.0999999999999988,21.7076596460585,11.0885867734109));
#1159=CARTESIAN_POINT('',(-0.0999999999999994,22.2025569381777,13.8952887887844));
#1160=CARTESIAN_POINT('Origin',(-0.1,23.1848712755768,10.8281145069105));
#1161=CARTESIAN_POINT('Origin',(-0.0999999999998235,59.7393249879177,-0.694555173503998));
#1162=CARTESIAN_POINT('',(4.89999999999986,65.7052528189802,4.34605045623463));
#1163=CARTESIAN_POINT('',(4.90000000000435,65.4447805524842,2.86883882671554));
#1164=CARTESIAN_POINT('',(5.9,66.6900605719926,4.17240227856767));
#1165=CARTESIAN_POINT('Origin',(119.436067977504,66.2261973519766,7.30047371527204));
#1166=CARTESIAN_POINT('',(115.300000000005,65.7052528189759,4.34605045623538));
#1167=CARTESIAN_POINT('',(115.300000000004,65.4447805524757,2.86883882671704));
#1168=CARTESIAN_POINT('',(119.536067977504,65.7052528189758,4.34605045623542));
#1169=CARTESIAN_POINT('',(118.668033988753,65.7052528189758,4.3460504562354));
#1170=CARTESIAN_POINT('',(119.536067977504,66.5734937073104,9.27008922129646));
#1171=CARTESIAN_POINT('',(119.536067977504,66.2261973519766,7.30047371527204));
#1172=CARTESIAN_POINT('',(0.663932022504402,66.5734937073196,9.27008922129483));
#1173=CARTESIAN_POINT('',(60.1,66.573493707315,9.27008922129564));
#1174=CARTESIAN_POINT('',(0.663932022504399,65.705252818985,4.34605045623379));
#1175=CARTESIAN_POINT('',(0.663932022504406,66.2261973519858,7.30047371527041));
#1176=CARTESIAN_POINT('',(89.6680339887532,65.7052528189781,4.34605045623501));
#1177=CARTESIAN_POINT('Origin',(115.300000000005,64.6633637529743,-1.56279606183787));
#1178=CARTESIAN_POINT('',(120.3,60.7812140539193,5.21429134456925));
#1179=CARTESIAN_POINT('Origin',(-1.1,64.2565818459567,7.64777007060509));
#1180=CARTESIAN_POINT('',(-1.1,5.19665732171892,21.107908078491));
#1181=CARTESIAN_POINT('',(-1.1,4.67571278871813,18.1534848194544));
#1182=CARTESIAN_POINT('',(-1.1,64.7775263789575,10.6021933296417));
#1183=CARTESIAN_POINT('',(-1.1,64.7775263789575,10.6021933296417));
#1184=CARTESIAN_POINT('',(-1.1,64.2565818459567,7.64777007060509));
#1185=CARTESIAN_POINT('',(-1.1,30.3389978131627,11.0897888927603));
#1186=CARTESIAN_POINT('',(-1.1,23.4453435420772,12.3053261364288));
#1187=CARTESIAN_POINT('',(-1.1,47.3269315599607,8.09435782671199));
#1188=CARTESIAN_POINT('',(-1.1,21.7076596460585,11.0885867734109));
#1189=CARTESIAN_POINT('Origin',(-1.1,23.1848712755768,10.8281145069105));
#1190=CARTESIAN_POINT('',(-1.1,21.4819170150915,9.80833669449505));
#1191=CARTESIAN_POINT('',(-1.1,22.2025569381777,13.8952887887844));
#1192=CARTESIAN_POINT('',(-1.1,22.6986563781094,8.07065279847634));
#1193=CARTESIAN_POINT('Origin',(-1.1,22.9591286446098,9.54786442799465));
#1194=CARTESIAN_POINT('',(-1.1,29.5923106491949,6.85511555480782));
#1195=CARTESIAN_POINT('',(-1.1,43.1334172604502,4.46745311059376));
#1196=CARTESIAN_POINT('',(-1.1,31.3299945452136,8.07185491782574));
#1197=CARTESIAN_POINT('Origin',(-1.1,29.8527829156953,8.33232718432614));
#1198=CARTESIAN_POINT('',(-1.1,31.5557371761806,9.35210499674161));
#1199=CARTESIAN_POINT('',(-1.1,31.9377631528163,11.5186819726571));
#1200=CARTESIAN_POINT('Origin',(-1.1,30.0785255466623,9.612577263242));
#1201=CARTESIAN_POINT('Origin',(2.9,4.67571278871813,18.1534848194544));
#1202=CARTESIAN_POINT('Origin',(2.9,5.19665732171892,21.107908078491));
#1203=CARTESIAN_POINT('Origin',(117.3,4.67571278871815,18.1534848194544));
#1204=CARTESIAN_POINT('',(121.3,5.19665732171894,21.107908078491));
#1205=CARTESIAN_POINT('',(121.3,4.67571278871815,18.1534848194544));
#1206=CARTESIAN_POINT('Origin',(117.3,5.19665732171894,21.107908078491));
#1207=CARTESIAN_POINT('Origin',(2.89999999999999,64.2565818459567,7.64777007060509));
#1208=CARTESIAN_POINT('',(2.89999999999999,68.7167573910064,9.90760061897399));
#1209=CARTESIAN_POINT('Origin',(2.89999999999999,64.7775263789575,10.6021933296417));
#1210=CARTESIAN_POINT('',(2.89999999999999,68.1958128580056,6.95317735993737));
#1211=CARTESIAN_POINT('Origin',(2.9,64.2565818459567,7.64777007060509));
#1212=CARTESIAN_POINT('',(2.9,67.5583014603272,9.09644104362871));
#1213=CARTESIAN_POINT('Origin',(2.9,64.6038782012906,9.61738557662951));
#1214=CARTESIAN_POINT('',(2.89999999999999,67.7319496379941,10.0812487966409));
#1215=CARTESIAN_POINT('',(2.9,67.2110051049934,7.1268255376043));
#1216=CARTESIAN_POINT('Origin',(2.9,64.7775263789575,10.6021933296417));
#1217=CARTESIAN_POINT('Origin',(2.9,63.7356373129559,4.69334681156846));
#1218=CARTESIAN_POINT('Origin',(2.99999999999999,67.2110051049934,7.1268255376043));
#1219=CARTESIAN_POINT('',(117.3,67.5583014603272,9.09644104362871));
#1220=CARTESIAN_POINT('',(31.550000000001,67.5583014603272,9.09644104362871));
#1221=CARTESIAN_POINT('',(117.3,67.7319496379942,10.0812487966409));
#1222=CARTESIAN_POINT('',(117.3,67.2110051049934,7.1268255376043));
#1223=CARTESIAN_POINT('',(117.2,67.7319496379942,10.0812487966409));
#1224=CARTESIAN_POINT('Origin',(60.1000000000021,67.0658975838188,9.18326513246258));
#1225=CARTESIAN_POINT('Origin',(117.3,64.6038782012906,9.61738557662951));
#1226=CARTESIAN_POINT('Origin',(2.9,4.67571278871813,18.1534848194544));
#1227=CARTESIAN_POINT('Origin',(2.9,4.15476825571734,15.1990615604177));
#1228=CARTESIAN_POINT('',(2.9,2.2422340626823,21.6288526114918));
#1229=CARTESIAN_POINT('Origin',(2.9,5.19665732171892,21.107908078491));
#1230=CARTESIAN_POINT('',(2.89999999999999,2.06858588501537,20.6440448584796));
#1231=CARTESIAN_POINT('',(2.9,1.72128952968151,18.6744293524552));
#1232=CARTESIAN_POINT('Origin',(2.9,5.02300914405199,20.1231003254788));
#1233=CARTESIAN_POINT('Origin',(2.4000000372529,4.64717213222345,15.1122374715843));
#1234=CARTESIAN_POINT('Origin',(117.2,68.1958128580056,6.95317735993737));
#1235=CARTESIAN_POINT('',(117.3,68.7167573910064,9.90760061897399));
#1236=CARTESIAN_POINT('',(117.2,68.7167573910064,9.90760061897399));
#1237=CARTESIAN_POINT('',(117.3,68.1958128580056,6.95317735993737));
#1238=CARTESIAN_POINT('Origin',(117.2,1.72128952968151,18.6744293524552));
#1239=CARTESIAN_POINT('',(117.3,2.2422340626823,21.6288526114918));
#1240=CARTESIAN_POINT('',(3.,2.2422340626823,21.6288526114918));
#1241=CARTESIAN_POINT('',(117.3,2.06858588501537,20.6440448584796));
#1242=CARTESIAN_POINT('',(117.3,1.72128952968151,18.6744293524552));
#1243=CARTESIAN_POINT('',(88.65,2.06858588501537,20.6440448584796));
#1244=CARTESIAN_POINT('Origin',(60.1,34.9870918503382,15.8550507040664));
#1245=CARTESIAN_POINT('',(121.3,64.7775263789575,10.6021933296417));
#1246=CARTESIAN_POINT('',(121.3,5.19665732171892,21.107908078491));
#1247=CARTESIAN_POINT('Origin',(117.3,64.7775263789575,10.6021933296417));
#1248=CARTESIAN_POINT('Origin',(117.3,64.7775263789575,10.6021933296417));
#1249=CARTESIAN_POINT('Origin',(117.3,5.19665732171894,21.107908078491));
#1250=CARTESIAN_POINT('Origin',(121.3,4.67571278871813,18.1534848194544));
#1251=CARTESIAN_POINT('',(121.3,64.2565818459567,7.64777007060509));
#1252=CARTESIAN_POINT('Origin',(117.3,64.2565818459567,7.64777007060509));
#1253=CARTESIAN_POINT('Origin',(117.3,4.67571278871815,18.1534848194544));
#1254=CARTESIAN_POINT('Origin',(117.3,5.02300914405201,20.1231003254788));
#1255=CARTESIAN_POINT('Origin',(117.3,4.15476825571736,15.1990615604177));
#1256=CARTESIAN_POINT('Origin',(60.1000000000021,67.0658975838188,9.18326513246258));
#1257=CARTESIAN_POINT('Origin',(117.3,64.2565818459567,7.64777007060509));
#1258=CARTESIAN_POINT('Origin',(117.3,63.7356373129559,4.69334681156846));
#1259=CARTESIAN_POINT('Origin',(117.800000000002,63.2432334364476,4.78017090040232));
#1260=CARTESIAN_POINT('Origin',(117.800000000002,63.2432334364476,4.78017090040232));
#1261=CARTESIAN_POINT('Origin',(2.4000000372529,4.64717213222345,15.1122374715843));
#1262=CARTESIAN_POINT('Origin',(-1.1,30.3389978131627,11.0897888927603));
#1263=CARTESIAN_POINT('',(-1.1,30.3389978131627,11.0897888927603));
#1264=CARTESIAN_POINT('',(-1.1,23.4453435420772,12.3053261364288));
#1265=CARTESIAN_POINT('Origin',(-1.1,30.0785255466623,9.612577263242));
#1266=CARTESIAN_POINT('',(-1.1,31.5557371761806,9.35210499674161));
#1267=CARTESIAN_POINT('Origin',(-1.1,31.3299945452136,8.07185491782574));
#1268=CARTESIAN_POINT('',(-1.1,31.3299945452136,8.07185491782574));
#1269=CARTESIAN_POINT('Origin',(-1.1,29.8527829156953,8.33232718432614));
#1270=CARTESIAN_POINT('',(-1.1,29.5923106491949,6.85511555480782));
#1271=CARTESIAN_POINT('Origin',(-1.1,22.6986563781094,8.07065279847634));
#1272=CARTESIAN_POINT('',(-1.1,22.6986563781094,8.07065279847634));
#1273=CARTESIAN_POINT('Origin',(-1.1,22.9591286446098,9.54786442799465));
#1274=CARTESIAN_POINT('',(-1.1,21.4819170150915,9.80833669449505));
#1275=CARTESIAN_POINT('Origin',(-1.1,21.7076596460585,11.0885867734109));
#1276=CARTESIAN_POINT('',(-1.1,21.7076596460585,11.0885867734109));
#1277=CARTESIAN_POINT('Origin',(-1.1,23.1848712755768,10.8281145069105));
#1278=UNCERTAINTY_MEASURE_WITH_UNIT(LENGTH_MEASURE(0.01),#1282,
'DISTANCE_ACCURACY_VALUE',
'Maximum model space distance between geometric entities at asserted c
onnectivities');
#1279=UNCERTAINTY_MEASURE_WITH_UNIT(LENGTH_MEASURE(0.01),#1282,
'DISTANCE_ACCURACY_VALUE',
'Maximum model space distance between geometric entities at asserted c
onnectivities');
#1280=(
GEOMETRIC_REPRESENTATION_CONTEXT(3)
GLOBAL_UNCERTAINTY_ASSIGNED_CONTEXT((#1278))
GLOBAL_UNIT_ASSIGNED_CONTEXT((#1282,#1284,#1285))
REPRESENTATION_CONTEXT('','3D')
);
#1281=(
GEOMETRIC_REPRESENTATION_CONTEXT(3)
GLOBAL_UNCERTAINTY_ASSIGNED_CONTEXT((#1279))
GLOBAL_UNIT_ASSIGNED_CONTEXT((#1282,#1284,#1285))
REPRESENTATION_CONTEXT('','3D')
);
#1282=(
LENGTH_UNIT()
NAMED_UNIT(*)
SI_UNIT(.MILLI.,.METRE.)
);
#1283=(
LENGTH_UNIT()
NAMED_UNIT(*)
SI_UNIT($,.METRE.)
);
#1284=(
NAMED_UNIT(*)
PLANE_ANGLE_UNIT()
SI_UNIT($,.RADIAN.)
);
#1285=(
NAMED_UNIT(*)
SI_UNIT($,.STERADIAN.)
SOLID_ANGLE_UNIT()
);
#1286=SHAPE_DEFINITION_REPRESENTATION(#1287,#1288);
#1287=PRODUCT_DEFINITION_SHAPE('',$,#1290);
#1288=SHAPE_REPRESENTATION('',(#774),#1280);
#1289=PRODUCT_DEFINITION_CONTEXT('part definition',#1294,'design');
#1290=PRODUCT_DEFINITION('2026-09-04-14-50-54-230',
'Lilygo time tracker 2',#1291,#1289);
#1291=PRODUCT_DEFINITION_FORMATION('',$,#1296);
#1292=PRODUCT_RELATED_PRODUCT_CATEGORY('Lilygo time tracker 2',
'Lilygo time tracker 2',(#1296));
#1293=APPLICATION_PROTOCOL_DEFINITION('international standard',
'automotive_design',2009,#1294);
#1294=APPLICATION_CONTEXT(
'Core Data for Automotive Mechanical Design Process');
#1295=PRODUCT_CONTEXT('part definition',#1294,'mechanical');
#1296=PRODUCT('2026-09-04-14-50-54-230','Lilygo time tracker 2',$,(#1295));
#1297=PRESENTATION_STYLE_ASSIGNMENT((#1298));
#1298=SURFACE_STYLE_USAGE(.BOTH.,#1299);
#1299=SURFACE_SIDE_STYLE('',(#1300));
#1300=SURFACE_STYLE_FILL_AREA(#1301);
#1301=FILL_AREA_STYLE('Acier - Satin\X\E9',(#1302));
#1302=FILL_AREA_STYLE_COLOUR('Acier - Satin\X\E9',#1303);
#1303=COLOUR_RGB('Acier - Satin\X\E9',0.627450980392157,0.627450980392157,
0.627450980392157);
ENDSEC;
END-ISO-10303-21;
